<svg width="388" height="281" viewBox="0 0 388 281" fill="none" xmlns="http://www.w3.org/2000/svg">
<path d="M210.57 99.6216C214.488 90.4404 203.066 53.3509 209.232 45.4813C215.149 42.7999 219.776 53.5307 221.019 58.0472C227.248 80.8891 229.95 104.699 234.64 127.905C235.819 133.744 240.473 139.583 240.774 143.364C242.493 164.905 233.995 184.463 229.379 204.766C228.258 209.695 230.716 227.767 231.34 233.653C216.534 236.932 186.462 238.116 172.132 233.626C171.805 222.732 172.577 211.208 171.577 200.54C171.366 198.293 168.642 190.148 167.86 187.599C166.347 182.575 165.105 177.471 164.137 172.315C161.81 160.034 161.149 147.521 159.092 135.119C156.829 121.464 141.627 86.4845 149.003 74.8811C150.595 73.8974 149.754 74.0825 151.589 74.2676C160.621 79.4929 163.328 107.444 174.084 120.359L173.994 119.528C171.466 97.3475 162.429 72.1363 166.718 49.1093C167.172 46.6765 168.505 45.7774 170.747 45C179.408 46.6236 181.079 77.0442 183.469 84.8979C186.129 93.6348 187.874 102.086 191.391 110.812C192.29 107.867 192.977 105 194.764 102.483L194.817 101.906C194.14 97.2523 194.569 93.7088 196.991 89.6577C198.238 87.3413 197.667 87.5317 199.592 86.6326C204.6 87.4259 207.614 95.7979 210.57 99.6216Z" fill="#E38372"/>
<path d="M194.817 101.906C197.16 103.752 197.445 109.184 199.016 111.632C206.54 123.378 221.362 134.971 211.252 150.24C209.026 153.603 202.173 154.481 198.825 151.456C194.526 145.475 195.314 130.64 194.019 123.458C193.495 120.565 192.157 111.447 192.549 110.178C196.049 112.595 195.605 142.508 198.535 148.151L198.989 148.087L199.201 147.728C202.823 151.721 203.235 152.477 208.56 150.324L209.359 149.959C212.669 145.443 211.336 135.817 211.083 130.047C203.627 118.518 198.127 117.185 194.764 102.483L194.817 101.906Z" fill="#291210"/>
<path d="M196.991 89.6577C198.239 87.3412 197.668 87.5316 199.592 86.6326C204.6 87.4259 207.614 95.7978 210.57 99.6216C209.169 100.457 206.71 102.271 205.335 102.578C199.148 103.958 197.678 93.6136 196.991 89.6577Z" fill="#070708"/>
<path d="M199.201 147.728C197.847 128.905 215.562 139.964 208.561 150.324C203.236 152.477 202.823 151.721 199.201 147.728Z" fill="#070708"/>
<path d="M218.808 108.845C217.079 106.026 212.558 102.065 212.22 100.124C217.153 103.244 218.211 106.989 221.611 111.474C222.743 112.96 223.858 112.711 225.603 112.88C227.147 112.711 228.305 112.373 229.633 113.071C227.909 114.509 226.127 114.245 223.842 114.261L223.203 114.329C223.404 117.762 233.398 131.449 233.096 133.199C230.183 132.02 221.341 114.187 219.216 110.141C217.153 112.367 214.34 114.668 211.289 115.276C212.209 113.986 216.651 110.955 218.808 108.845Z" fill="#291210"/>
<path d="M225.604 112.88C227.148 112.711 228.306 112.373 229.633 113.071C227.909 114.509 226.127 114.245 223.843 114.261L226.344 113.515L225.604 112.88Z" fill="#5C2A24"/>
<path d="M198.292 198.488C198.947 198.451 199.598 198.425 200.248 198.414C202.622 198.383 221.674 199.477 222.388 200.181C215.763 201.133 204.653 199.863 197.054 199.895C190.513 200.376 182.862 205.242 175.649 201.915C177.42 201.043 181.376 201.984 184.088 201.461C189.154 200.482 193.094 198.996 198.292 198.488Z" fill="#291210"/>
<path d="M199.73 153.698C200.507 156.216 197.123 163.451 196.716 166.91C196.002 172.902 197.673 178.973 197.276 184.658C193.258 176.62 195.6 161.425 199.73 153.698Z" fill="#291210"/>
<path d="M181.846 146.305C187.134 147.907 192.57 166.137 193.146 171.49C191.967 170.622 190.756 165.344 190.095 163.424C187.858 156.903 185.246 152.159 181.846 146.305Z" fill="#291210"/>
<path d="M216.244 141.09C217.587 141.979 226.27 151.874 228.401 154.016C224.467 153.482 217.122 145.025 216.244 141.09Z" fill="#291210"/>
<path d="M190.026 112.336L190.2 112.991C188.244 116.995 179.937 117.138 175.997 116.804C175.939 116.286 175.939 116.635 176.283 115.8C182.443 115.789 184.717 115.456 190.026 112.336Z" fill="#291210"/>
<path d="M225.519 88.0236L224.906 89.0866C221.172 91.1809 216.461 90.8742 212.437 89.8799L212.363 89.5149L212.759 89.0866C217.767 89.5044 220.691 89.24 225.519 88.0236Z" fill="#291210"/>
<path d="M181.656 91.0751L182.233 91.2021L181.751 92.0271C177.801 93.8517 174.909 93.7776 170.705 93.418L170.145 93.0372L170.287 92.4237C175.247 92.0059 176.738 92.5876 181.656 91.0751Z" fill="#291210"/>
<path d="M159.706 94.169L160.425 94.2589L160.737 94.7772C158.352 96.8979 154.598 97.76 151.542 98.347L150.807 97.8234C151.6 96.9032 156.734 95.8561 159.706 94.169Z" fill="#291210"/>
<path d="M220.585 67.3236L220.934 67.5457L220.987 68.2861C218.486 69.7881 214.959 69.8199 212.114 69.6982L211.358 68.9684C212.304 68.0852 217.249 68.3919 220.585 67.3236Z" fill="#291210"/>
<path d="M177.5 68.8626C178.261 68.7621 177.864 68.7198 178.673 69.1059C177.013 70.8406 172.867 71.3535 170.546 71.5069C169.748 71.1208 169.6 70.9569 168.88 70.4334C169.488 69.9574 175.612 69.402 177.5 68.8626Z" fill="#291210"/>
<path d="M200.497 126.991C203.627 126.747 204.991 126.589 207.868 128.08L207.355 128.535L205.874 128.239C203.32 127.89 201.036 128.456 198.297 128.63L198.387 128.001L200.497 126.991Z" fill="#291210"/>
<path d="M164.243 110.014L165.28 110.247C164.064 112.029 159.743 113.15 157.671 113.658L156.597 113.177C157.332 112.33 162.71 110.601 164.243 110.014Z" fill="#291210"/>
</svg>
